<svg xmlns="http://www.w3.org/2000/svg" viewBox="0 0 640 640" width="640" height="640"><g transform="translate(-190.47,134.23001)"><g transform="matrix(3.2864,0,0,3.2864,-470.86,-1532.5)"><path style="fill:#a9fafa;stroke:#000;stroke-width:4;stroke-linecap:round" d="m260.29713 509.93c20.689 8.9486 21.382 25.076 38.678 18.753 13.793-5.0421 4.6065-21.087 1.5824-43.424-1.9931-14.723-8.6705-26.603-21.509-37.196-11.882-9.8046-25.311-7.4876-35.415-1.6012-12.689 7.3923-12.96 22.702-11.59 30.678 3.5107 20.439 11.884 25.71 28.254 32.79z" /><path d="m374.43713 564.52c0 28.566-32.166 49.355-71.685 51.723-23.251 1.393-44.693-7.797-54.58-22.189-3.6022-3.9955-10.366-17.481-15.283-20.544-9.2607-5.7677-2.1166-3.07-16.286-10.222 11.668-5.5738 5.9006-.66764 15.244-6.8709 7.5042-4.4962 15.149-12.54 20.145-18.914 8.8789-11.326 27.851-25.216 50.76-24.706 39.581.88018 71.685 23.157 71.685 51.723z" style="fill:#ff0;stroke:#000;stroke-width:4;stroke-linecap:round" /><path d="m237.41713 578.2s-3.1301-3.8135-4.5288-4.6847c-9.2607-5.7677-4.535-3.07-18.704-10.222 7.1765-2.8099 8.319-2.7405 17.662-6.8709 1.6093-.96422 4.8197-3.3307 4.8197-3.3307-5.7289 5.9656-8.4839 12.317.75095 25.108z" style="fill:#000;stroke:#000;stroke-width:4;stroke-linecap:round" /><path d="m283.28713 612.73-17.49-3.8056c-12.837-28.65-16.933-52.9 1.9372-85.566l18.198-7.0149c-15.019 26.259-20.226 51.255-2.6447 96.387z" style="fill:#000;stroke:#000;stroke-width:4;stroke-linecap:round" /><path d="m331.12713 609.58-17.547 5.5362c-12.3-27.47-22.83-70.29 1.05-101.4l18.376 4.8279c-9.6793 10.117-26.327 37.363-1.8695 91.026z" style="fill:#000;stroke:#000;stroke-width:4;stroke-linecap:round" /><path d="m364.39713 589.24c-10.285 3.0504-18.492-1.6019-20.399-11.027" style="fill:none;stroke:#000;stroke-width:3" /><path d="m336.42713 578.84c3.3721 1.8649 11.148-.35025 11.039-6.6629" style="fill:none;stroke:#000;stroke-width:3" /><circle style="fill:#000;stroke:#000;stroke-width:.188356;stroke-linecap:round" cx="353.40665" cy="550.01495" r="4.5784221" /><path style="fill:#a9fafa;stroke:#000;stroke-width:4;stroke-linecap:round" d="m283.87713 488.98c12.944 19.19 7.893 30.139 7.893 30.139s14.074-2.5494 23.967 3.1895c0 0 8.3697-15.763 14.762-25.475 8.1787-12.426 10.951-25.787 8.226-42.229-2.5221-15.217-14.184-22.3-25.684-24.502-14.442-2.765-24.565 8.7098-28.928 15.538-8.0511 12.6-10.222 28.534-.23581 43.339z" /><path style="fill:none;stroke:#000;stroke-width:3" d="m287.66713 520.34c3.0906-.67532 4.4293-.71347 5.5229-3.243" /><path d="m339.61126 477.27387 22.31199 55.43079" style="fill:#000;fill-opacity:1;stroke:#f70000;stroke-width:7.60710808;stroke-linecap:round;stroke-linejoin:miter;stroke-miterlimit:4;stroke-dasharray:none;stroke-opacity:1" /><path style="fill:none;fill-opacity:1;stroke:red;stroke-width:7.60710808;stroke-linecap:round;stroke-linejoin:miter;stroke-miterlimit:4;stroke-dasharray:none;stroke-opacity:1" d="m362.58766 533.66614 25.01283-57.63827" /></g></g></svg>