<svg version="1.0" xmlns="http://www.w3.org/2000/svg" width="700pt" height="700pt" viewBox="0 0 700 700"><g transform="translate(0.000000,700.000000) scale(0.100000,-0.100000)" fill="#000" stroke="none"><path d="M3740 6914c-154-30-282-81-406-164-116-78-305-272-389-4e2-38-58-72-109-75-113-4-5-40 17-81 48-285 215-657 270-1015 150-192-64-362-162-470-269-270-270-354-722-229-1219 74-290 169-473 334-638 138-138 315-246 633-388 86-38 190-89 230-112 95-55 239-160 233-170-3-4-42-29-88-55-116-69-304-211-404-307-119-114-165-163-284-307-123-148-313-346-410-426-182-152-302-219-564-315-164-60-430-161-444-169-10-5 76-53 265-148 308-156 506-273 573-342 80-81 147-172 281-380 294-456 452-617 811-824 144-84 458-196 666-240 219-45 286-51 568-51 318 0 457 13 728 66 384 76 641 160 943 309 472 233 804 535 993 905 259 503 197 1085-166 1567-56 74-72 102-64 111 6 7 215 485 466 1062 484 1116 476 1095 436 1161-19 32-74 64-109 64-30 0-74-18-97-40-11-10-195-424-410-919-214-495-392-901-395-901-3 0-164 396-359 881-284 706-359 884-381 902-27 22-27 22-18 102 5 44 7 157 4 250-14 469-105 733-331 961-165 167-371 276-640 340-68 16-285 27-335 18zm360-175c136-34 319-121 423-2e2 129-98 239-249 297-408 63-171 97-494 79-742-8-121-13-144-34-175-21-31-24-46-23-112 2-64-4-93-31-172-48-137-137-316-232-465-112-176-275-452-394-668-77-140-101-177-114-172-174 69-333 97-551 98l-165 1-1 146c0 125-4 160-28 253-52 206-140 394-296 637-78 122-98 160-139 263-95 239-112 5e2-49 757 111 452 469 872 828 970 131 36 257 33 430-11zm-1776-4e2c133-23 319-113 423-205 48-41 48-42 35-75-37-94-74-212-94-303-31-135-33-415-4-545 43-197 106-342 241-556 171-271 273-526 286-714l3-44-99-23c-119-26-255-71-374-123l-86-37-55 43c-161 129-278 197-524 308-295 132-440 221-565 344-154 152-252 358-317 666-24 112-28 153-28 3e2.0 127 4 191 18 255 60 281 202 467 453 594 234 117 455 154 687 115zm2923-2241c166-414 301-753 3e2-754-1-1-54 33-118 75-257 169-598 316-919 396-58 14-111 28-118 30-10 4-6 17 14 52 58 102 216 364 293 488 89 142 175 304 212 403 13 34 26 62 29 62 3 0 141-339 307-752zm-2037-355c0-5-5-24-10-44-9-32-15-37-53-45l-42-10 3-44c2-25 7-49 12-54 5-5 47-2 102 9 125 23 359 31 486 15 56-7 102-14 102-16 0-3-20-45-45-94-128-255-216-562-257-895-20-164-17-613 6-795 57-468 176-923 362-1388 30-74 53-136 52-138-2-1-50-8-108-15-198-25-728-11-778 20-22 14-181 467-251 717-114 408-164 739-164 1094 0 540 124 985 430 1547 61 111 70 123 102 131 48 13 51 13 51 5zm1652-192c525-209 936-550 1136-940 105-204 141-340 149-556 11-3e2-57-534-230-792-43-65-71-96-92-104-16-6-81-14-143-16-138-7-216 11-301 68-80 53-132 121-168 219l-21 55 43 47c44 49 75 119 75 170 0 29-1 29-52 26l-52-3-9-44c-19-96-139-169-259-158l-59 5-19-39c-11-21-20-42-20-48 0-27 157-37 235-15 17 4 23-2 34-33 25-72 75-148 137-209 103-102 236-154 393-154h85l-30-31c-114-122-361-294-585-407-162-82-364-166-379-157-12 7-124 276-185 445-173 476-256 9e2-256 1310 0 386 58 670 195 965 75 160 257 425 291 425 8 0 47-13 87-29zm-2754-468c-104-239-177-485-224-753-25-146-30-520-10-694 32-274 104-559 220-869 36-94 63-174 60-176-8-8-161 117-244 199-107 107-195 224-351 465-67 105-157 240-199 3e2-97 137-142 218-174 317-64 191-8 360 171 514 180 154 357 337 517 533 87 106 274 301 290 301 2 0-23-62-56-137z"/><path d="M5386 2667c-45-25-86-93-86-141 0-41 38-115 71-139 35-25 92-37 136-27 51 12 84 39 111 90 28 56 28 96-1 151-29 55-85 89-147 89-28 0-60-9-84-23z"/></g></svg>